<svg xmlns="http://www.w3.org/2000/svg" viewBox="0 0 64 64" width="64" height="64">
  <title>Buzzin</title>
  <rect width="64" height="64" rx="15" fill="#17161F"/>
  <g transform="translate(3.5 1.5)">
    <path d="M23 25 C14 23 11 13 17 10 C22 8 27 16 29 24 Z" fill="#FFFFFF" fill-opacity=".92"/>
    <path d="M33 24 C35 15 42 9 47 12 C52 16 47 25 37 26 Z" fill="#FFFFFF" fill-opacity=".92"/>
    <clipPath id="bz-body"><rect x="12" y="25" width="38" height="24" rx="12"/></clipPath>
    <rect x="12" y="25" width="38" height="24" rx="12" fill="#FFC21A"/>
    <g clip-path="url(#bz-body)" fill="#17161F"><rect x="23" y="25" width="5" height="24"/><rect x="33.5" y="25" width="5" height="24"/></g>
    <circle cx="44" cy="35" r="2.2" fill="#17161F"/>
    <path d="M3 33 h4 M1.5 39 h5.5" stroke="#FFC21A" stroke-width="2.4" stroke-linecap="round"/>
  </g>
</svg>
